<svg width="280" height="280" viewBox="0 0 280 280" fill="none" xmlns="http://www.w3.org/2000/svg">
<rect width="280" height="280" fill="#224C2D"/>
<path d="M206.68 83V86.2C203.267 86.3067 200.653 86.7333 198.84 87.48C197.027 88.12 195.8 89.4 195.16 91.32C194.627 93.1333 194.36 96.0133 194.36 99.96V179.32C194.36 183.16 194.68 186.04 195.32 187.96C195.96 189.88 197.133 191.16 198.84 191.8C200.653 192.44 203.267 192.867 206.68 193.08V196.28C203.907 196.067 200.387 195.96 196.12 195.96C191.853 195.853 187.533 195.8 183.16 195.8C178.36 195.8 173.827 195.853 169.56 195.96C165.4 195.96 162.04 196.067 159.48 196.28V193.08C163.107 192.867 165.827 192.44 167.64 191.8C169.56 191.16 170.84 189.88 171.48 187.96C172.12 186.04 172.44 183.16 172.44 179.32V92.28L173.56 92.44L133.88 196.76H131.32L89.0801 93.24V172.6C89.0801 177.72 89.4001 181.72 90.0401 184.6C90.6801 187.373 92.0667 189.4 94.2001 190.68C96.4401 191.853 99.8001 192.653 104.28 193.08V196.28C102.253 196.067 99.6401 195.96 96.4401 195.96C93.2401 195.853 90.2001 195.8 87.3201 195.8C84.7601 195.8 82.1467 195.853 79.4801 195.96C76.9201 195.96 74.7867 196.067 73.0801 196.28V193.08C76.6001 192.653 79.2134 191.853 80.9201 190.68C82.7334 189.507 83.9067 187.587 84.4401 184.92C85.0801 182.253 85.4001 178.573 85.4001 173.88V99.96C85.4001 96.0133 85.0801 93.1333 84.4401 91.32C83.9067 89.4 82.7334 88.12 80.9201 87.48C79.2134 86.7333 76.6001 86.3067 73.0801 86.2V83C74.7867 83.1067 76.9201 83.2133 79.4801 83.32C82.1467 83.4267 84.7601 83.48 87.3201 83.48C91.2667 83.48 95.1067 83.4267 98.8401 83.32C102.573 83.2133 105.88 83.1067 108.76 83L143.16 168.92L139.64 171.8L173.08 83.48C174.68 83.48 176.333 83.48 178.04 83.48C179.853 83.48 181.56 83.48 183.16 83.48C187.533 83.48 191.853 83.4267 196.12 83.32C200.387 83.2133 203.907 83.1067 206.68 83Z" fill="#F6EFDF"/>
</svg>
